<?xml version="1.0" standalone="no"?>
<!DOCTYPE svg PUBLIC "-//W3C//DTD SVG 20010904//EN"
 "http://www.w3.org/TR/2001/REC-SVG-20010904/DTD/svg10.dtd">
<svg version="1.0" xmlns="http://www.w3.org/2000/svg"
 width="512.000000pt" height="512.000000pt" viewBox="0 0 512.000000 512.000000"
 preserveAspectRatio="xMidYMid meet">
<metadata>
Created by potrace 1.14, written by Peter Selinger 2001-2017
</metadata>
<g transform="translate(0.000000,512.000000) scale(0.100000,-0.100000)"
fill="#000000" stroke="none">
<path d="M855 4636 c-54 -24 -95 -85 -95 -140 0 -15 -12 -31 -37 -47 -50 -32
-63 -61 -63 -141 l0 -68 -117 -1 c-147 -1 -159 -3 -207 -37 -61 -42 -86 -99
-86 -194 l0 -78 -35 0 c-47 0 -84 -19 -101 -51 -18 -35 -21 -444 -3 -482 19
-43 58 -57 158 -57 l91 0 0 -1135 c0 -1073 -1 -1136 -17 -1141 -72 -23 -129
-70 -161 -134 -25 -51 -31 -399 -8 -436 l16 -24 2369 0 c2320 0 2368 0 2385
19 16 17 17 40 14 213 -2 161 -6 199 -21 229 -31 62 -78 103 -149 129 l-28 10
0 1135 0 1135 90 0 c166 0 170 7 170 295 0 235 -5 260 -55 283 -14 7 -41 12
-60 12 l-35 0 0 78 c0 96 -25 152 -89 197 -42 29 -45 30 -187 33 l-144 4 0 70
c0 82 -18 120 -67 143 -27 13 -33 22 -33 47 0 44 -37 102 -80 127 -54 30 -224
31 -286 0 -46 -22 -84 -82 -84 -132 0 -20 -8 -30 -34 -42 -46 -22 -66 -67 -66
-149 l0 -66 -1245 0 -1245 0 0 70 c0 82 -17 123 -60 145 -21 11 -30 23 -30 41
0 44 -27 92 -69 122 -39 29 -45 30 -153 31 -76 0 -123 -4 -143 -13z m233 -118
c7 -7 12 -20 12 -30 0 -16 -11 -18 -110 -18 -99 0 -110 2 -110 18 0 10 5 23
12 30 16 16 180 16 196 0z m3136 -4 c16 -41 10 -44 -99 -44 -94 0 -105 2 -105
18 0 34 21 42 111 42 70 0 88 -3 93 -16z m-3034 -374 l0 -210 -205 0 -205 0 0
210 0 210 205 0 205 0 0 -210z m3140 0 l0 -210 -205 0 -205 0 0 210 0 210 205
0 205 0 0 -210z m-3670 -115 l0 -95 -145 0 -145 0 0 70 c0 62 3 74 25 95 23
24 30 25 145 25 l120 0 0 -95z m3140 0 l0 -95 -1245 0 -1245 0 0 95 0 95 1245
0 1245 0 0 -95z m931 66 c15 -18 19 -39 19 -92 l0 -69 -150 0 -150 0 0 96 0
96 131 -4 c123 -3 132 -4 150 -27z m169 -456 l0 -175 -2340 0 -2340 0 0 175 0
175 2340 0 2340 0 0 -175z m-260 -1430 l0 -1135 -2080 0 -2080 0 0 1135 0
1135 2080 0 2080 0 0 -1135z m134 -1270 c57 -27 66 -56 66 -209 l0 -136 -2280
0 -2280 0 0 136 c0 110 3 141 17 165 37 63 -135 59 2261 59 1931 0 2188 -2
2216 -15z"/>
<path d="M632 3204 c-18 -12 -22 -25 -22 -65 0 -60 24 -90 67 -83 38 7 53 29
53 79 0 73 -46 106 -98 69z"/>
<path d="M1525 2998 c-26 -15 -39 -29 -53 -55 -17 -31 -17 -1435 0 -1466 16
-30 32 -45 63 -57 17 -6 385 -10 1036 -10 1120 0 1056 -4 1085 65 12 29 14
153 14 740 0 516 -3 712 -12 728 -14 27 -28 41 -55 55 -31 17 -2049 16 -2078
0z m2015 -788 l0 -680 -980 0 -980 0 0 680 0 680 980 0 980 0 0 -680z"/>
<path d="M2418 2799 c-18 -10 -33 -54 -43 -129 -3 -25 -10 -70 -15 -100 -5
-30 -12 -73 -15 -95 -3 -22 -7 -47 -10 -55 -2 -8 -6 -32 -9 -52 -14 -89 -18
-114 -22 -138 -22 -127 -25 -164 -15 -186 18 -39 51 -39 129 0 40 20 74 36 77
36 3 0 5 -79 5 -175 0 -166 1 -175 22 -195 25 -23 47 -25 72 -7 10 7 41 89 77
207 176 564 174 557 161 584 -17 39 -55 41 -123 6 -32 -16 -59 -28 -59 -26 0
3 18 63 40 135 22 71 40 137 40 146 0 8 -9 24 -20 35 -18 18 -33 20 -147 20
-71 0 -136 -5 -145 -11z m167 -126 c-4 -10 -27 -85 -52 -167 -42 -137 -45
-152 -32 -175 20 -36 57 -37 119 -6 29 15 54 25 56 23 2 -2 -10 -44 -26 -93
-15 -50 -29 -80 -29 -68 -1 25 -36 53 -66 53 -11 0 -44 -14 -74 -30 -30 -17
-56 -28 -58 -26 -2 2 6 61 17 132 12 71 23 140 25 154 5 38 26 163 30 180 2 8
4 21 4 28 1 8 17 12 47 12 40 0 45 -2 39 -17z"/>
<path d="M631 2969 c-21 -20 -21 -26 -21 -553 0 -504 1 -534 18 -549 26 -24
68 -21 86 5 14 20 16 89 16 550 0 465 -2 528 -16 542 -8 9 -18 16 -22 17 -4 0
-15 2 -24 4 -9 2 -26 -6 -37 -16z"/>
<path d="M1077 2392 c-12 -13 -17 -37 -17 -85 l0 -67 -62 0 c-64 -1 -89 -11
-101 -43 -7 -19 8 -56 27 -69 6 -4 39 -8 74 -8 l62 0 0 -65 c0 -70 20 -105 60
-105 40 0 60 35 60 105 l0 65 68 0 c76 0 102 16 102 62 0 42 -28 58 -103 58
l-67 0 0 68 c0 54 -4 72 -18 85 -24 22 -65 21 -85 -1z"/>
<path d="M3828 2233 c-15 -4 -28 -26 -34 -60 -1 -6 7 -21 18 -33 19 -20 26
-21 219 -18 184 3 199 4 213 23 17 23 13 51 -10 76 -16 17 -33 19 -203 18
-102 -1 -194 -3 -203 -6z"/>
</g>
</svg>
