<svg width="506" height="534" viewBox="0 0 506 534" fill="none" xmlns="http://www.w3.org/2000/svg">
<g clip-path="url(#clip0_1_9)">
<path d="M448.807 52.3535C435.553 40.1244 381.995 1.2441 262.697 0.715883C262.697 0.715883 122.014 -7.76766 53.4338 55.1386C15.2578 93.3226 1.82823 149.194 0.41164 218.463C-1.00495 287.732 -2.83772 417.546 122.295 452.745H122.415L122.335 506.455C122.335 506.455 121.534 528.2 135.852 532.634C153.171 538.013 163.336 521.486 179.871 503.67C188.946 493.89 201.48 479.524 210.924 468.543C296.503 475.746 362.323 459.284 369.798 456.851C387.077 451.248 484.854 438.723 500.757 308.917C517.172 175.125 492.817 90.4974 448.807 52.3535Z" fill="white"/>
<path d="M420.979 79.3808C409.775 69.2005 361.411 38.8118 260.496 38.3717C260.496 38.3717 140.998 30.5204 82.9902 83.0623C50.7047 114.94 39.8281 162.343 38.6356 220.192C37.4431 278.04 31.2645 388.55 137.077 417.946C137.077 417.946 136.661 499.989 136.613 507.2C136.613 512.242 137.413 515.691 140.294 516.403C142.367 516.908 145.472 515.835 148.113 513.202C165.032 496.211 219.199 430.864 219.199 430.864C291.877 435.61 349.702 421.26 355.92 419.227C370.582 414.513 449.887 407.702 463.309 299.289C477.179 187.538 458.211 111.258 420.979 79.3808Z" fill="#7360F2"/>
<path d="M311.806 215.438C310.493 188.979 297.053 175.082 271.485 173.748" stroke="white" stroke-width="13.4936" stroke-linecap="round" stroke-linejoin="round"/>
<path d="M346.42 227.043C346.954 202.392 339.652 181.797 324.515 165.257C309.309 148.658 288.26 139.518 261.249 137.541" stroke="white" stroke-width="13.4936" stroke-linecap="round" stroke-linejoin="round"/>
<path d="M381.859 240.904C381.534 198.129 368.752 164.44 343.515 139.838C318.278 115.236 286.891 102.804 249.356 102.542" stroke="white" stroke-width="13.4936" stroke-linecap="round" stroke-linejoin="round"/>
<path d="M272.821 305.803C272.821 305.803 282.305 306.604 287.412 300.313L297.368 287.788C302.17 281.577 313.759 277.616 325.107 283.938C333.612 288.789 341.868 294.061 349.846 299.737C357.377 305.275 372.799 318.145 372.847 318.145C380.194 324.347 381.891 333.455 376.889 343.059C376.889 343.115 376.849 343.211 376.849 343.259C371.34 352.81 364.345 361.422 356.128 368.774C356.032 368.822 356.032 368.87 355.944 368.918C348.805 374.883 341.792 378.274 334.903 379.09C333.889 379.268 332.859 379.332 331.83 379.282C328.793 379.311 325.771 378.847 322.882 377.906L322.658 377.577C312.046 374.584 294.326 367.093 264.818 350.814C247.742 341.505 231.485 330.766 216.222 318.713C208.571 312.675 201.274 306.203 194.365 299.329L193.628 298.592L192.892 297.856L192.156 297.12C191.908 296.88 191.668 296.632 191.419 296.383C184.545 289.475 178.073 282.177 172.035 274.526C159.984 259.264 149.245 243.01 139.934 225.938C123.655 196.422 116.164 178.718 113.171 168.09L112.843 167.866C111.904 164.977 111.442 161.955 111.474 158.918C111.418 157.89 111.48 156.859 111.658 155.845C112.517 148.967 115.913 141.948 121.846 134.788C121.894 134.7 121.942 134.7 121.99 134.604C129.34 126.387 137.953 119.395 147.505 113.891C147.553 113.891 147.649 113.843 147.705 113.843C157.309 108.841 166.417 110.538 172.612 117.845C172.66 117.893 185.505 133.315 191.019 140.846C196.696 148.832 201.968 157.096 206.818 165.609C213.141 176.95 209.179 188.562 202.968 193.348L190.443 203.305C184.12 208.411 184.953 217.895 184.953 217.895C184.953 217.895 203.505 288.108 272.821 305.803Z" fill="white"/>
</g>
<defs>
<clipPath id="clip0_1_9">
<rect width="506" height="534" fill="white"/>
</clipPath>
</defs>
</svg>
