<svg width="500" height="505" viewBox="0 0 500 505" fill="none" xmlns="http://www.w3.org/2000/svg">
<g clip-path="url(#clip0_1_11)">
<g filter="url(#filter0_f_1_11)">
<g filter="url(#filter1_d_1_11)">
<path d="M12.4611 257.472C12.4457 299.435 23.3807 340.397 44.166 376.504L10.4666 499.877L136.388 466.771C171.082 485.742 210.144 495.739 249.896 495.755H249.999C380.91 495.755 487.478 388.935 487.533 257.665C487.555 194.044 462.869 134.224 418.025 89.2214C373.174 44.2201 313.536 19.4246 249.999 19.3964C119.065 19.3964 12.5131 126.2 12.4611 257.472V257.472Z" fill="black"/>
</g>
<path d="M12.4611 257.472C12.4457 299.435 23.3807 340.397 44.166 376.504L10.4666 499.877L136.388 466.771C171.082 485.742 210.144 495.739 249.896 495.755H249.999C380.91 495.755 487.478 388.935 487.533 257.665C487.555 194.044 462.869 134.224 418.025 89.2214C373.174 44.2201 313.536 19.4246 249.999 19.3964C119.065 19.3964 12.5131 126.2 12.4611 257.472V257.472Z" fill="black" fill-opacity="0.2"/>
</g>
<path d="M20.9851 254.993C20.9732 295.352 31.5181 334.76 51.5712 369.494L19.0666 488.179L140.522 456.332C173.984 474.57 211.658 484.194 250.001 484.208H250.103C376.368 484.208 479.152 381.458 479.204 255.172C479.229 193.975 455.419 136.432 412.159 93.1412C368.908 49.8502 311.383 25.9968 250.095 25.9695C123.815 25.9695 21.0363 128.71 20.9851 254.993Z" fill="url(#paint0_linear_1_11)"/>
<path d="M12.805 254.914C12.7897 296.728 23.7152 337.546 44.4817 373.526L10.8123 496.462L136.624 463.474C171.287 482.377 210.314 492.34 250.032 492.355H250.134C380.931 492.355 487.404 385.912 487.46 255.107C487.482 191.709 462.818 132.1 418.013 87.2559C373.202 42.4134 313.617 17.7066 250.134 17.6776C119.316 17.6776 12.8571 124.104 12.8042 254.914H12.805ZM87.7267 367.331L83.0303 359.872C63.2836 328.474 52.859 292.189 52.8761 254.93C52.9179 146.204 141.402 57.7504 250.209 57.7504C302.9 57.7717 352.42 78.3094 389.667 115.581C426.91 152.85 447.404 202.397 447.389 255.09C447.343 363.82 358.855 452.286 250.135 452.286H250.058C214.656 452.267 179.939 442.763 149.659 424.794L142.453 420.523L67.794 440.097L87.7267 367.331Z" fill="url(#paint1_linear_1_11)"/>
<path fill-rule="evenodd" clip-rule="evenodd" d="M190.818 155.737C186.376 145.863 181.7 145.664 177.474 145.491C174.018 145.343 170.06 145.352 166.11 145.352C162.157 145.352 155.731 146.837 150.298 152.771C144.862 158.705 129.541 173.049 129.541 202.225C129.541 231.403 150.793 259.594 153.755 263.554C156.72 267.509 194.779 329.292 255.052 353.061C305.145 372.815 315.338 368.886 326.211 367.898C337.083 366.909 361.295 353.556 366.236 339.709C371.179 325.864 371.179 313.997 369.696 311.516C368.213 309.044 364.26 307.562 358.329 304.596C352.398 301.63 323.245 287.283 317.809 285.306C312.372 283.33 308.418 282.341 304.465 288.278C300.511 294.209 289.155 307.562 285.693 311.517C282.234 315.479 278.775 315.973 272.844 313.008C266.913 310.033 247.815 303.778 225.158 283.577C207.529 267.86 195.629 248.45 192.168 242.513C188.709 236.582 191.798 233.37 194.772 230.414C197.435 227.757 200.704 223.492 203.668 220.029C206.627 216.567 207.616 214.095 209.593 210.141C211.569 206.181 210.581 202.718 209.099 199.753C207.616 196.788 196.092 167.461 190.818 155.737Z" fill="white"/>
</g>
<defs>
<filter id="filter0_f_1_11" x="7.05293" y="15.9827" width="483.894" height="487.308" filterUnits="userSpaceOnUse" color-interpolation-filters="sRGB">
<feFlood flood-opacity="0" result="BackgroundImageFix"/>
<feBlend mode="normal" in="SourceGraphic" in2="BackgroundImageFix" result="shape"/>
<feGaussianBlur stdDeviation="1.70686" result="effect1_foregroundBlur_1_11"/>
</filter>
<filter id="filter1_d_1_11" x="-10.8691" y="-5.35301" width="519.738" height="523.152" filterUnits="userSpaceOnUse" color-interpolation-filters="sRGB">
<feFlood flood-opacity="0" result="BackgroundImageFix"/>
<feColorMatrix in="SourceAlpha" type="matrix" values="0 0 0 0 0 0 0 0 0 0 0 0 0 0 0 0 0 0 127 0" result="hardAlpha"/>
<feOffset dy="-3.41372"/>
<feGaussianBlur stdDeviation="10.6679"/>
<feComposite in2="hardAlpha" operator="out"/>
<feColorMatrix type="matrix" values="0 0 0 0 0 0 0 0 0 0 0 0 0 0 0 0 0 0 0.21 0"/>
<feBlend mode="normal" in2="BackgroundImageFix" result="effect1_dropShadow_1_11"/>
<feBlend mode="normal" in="SourceGraphic" in2="effect1_dropShadow_1_11" result="shape"/>
</filter>
<linearGradient id="paint0_linear_1_11" x1="249.134" y1="488.179" x2="249.134" y2="25.9691" gradientUnits="userSpaceOnUse">
<stop stop-color="#20B038"/>
<stop offset="1" stop-color="#60D66A"/>
</linearGradient>
<linearGradient id="paint1_linear_1_11" x1="249.137" y1="496.463" x2="249.137" y2="17.6779" gradientUnits="userSpaceOnUse">
<stop stop-color="#F9F9F9"/>
<stop offset="1" stop-color="white"/>
</linearGradient>
<clipPath id="clip0_1_11">
<rect width="500" height="505" fill="white"/>
</clipPath>
</defs>
</svg>
